<svg xmlns="http://www.w3.org/2000/svg" version="1.1" xmlns:xlink="http://www.w3.org/1999/xlink" xmlns:svgjs="http://svgjs.dev/svgjs" width="2000" height="525" viewBox="0 0 2000 525"><g transform="matrix(1,0,0,1,-1.2121212121212466,-2.4028261027018516)"><svg viewBox="0 0 396 104" data-background-color="#ffffff" preserveAspectRatio="xMidYMid meet" height="525" width="2000" xmlns="http://www.w3.org/2000/svg" xmlns:xlink="http://www.w3.org/1999/xlink"><g id="tight-bounds" transform="matrix(1,0,0,1,0.2400000000000091,0.4759884089161801)"><svg viewBox="0 0 395.52 103.04802318216767" height="103.04802318216767" width="395.52"><g><svg viewBox="0 0 554.9690865318801 144.5905827627518" height="103.04802318216767" width="395.52"><g transform="matrix(1,0,0,1,159.44908653188003,40.825544839736324)"><svg viewBox="0 0 395.52 62.93949308327917" height="62.93949308327917" width="395.52"><g id="textblocktransform"><svg viewBox="0 0 395.52 62.93949308327917" height="62.93949308327917" width="395.52" id="textblock"><g><svg viewBox="0 0 395.52 62.93949308327917" height="62.93949308327917" width="395.52"><g transform="matrix(1,0,0,1,0,0)"><svg width="395.52" viewBox="1.23 -33.48 269.24 42.86" height="62.93949308327917" data-palette-color="#000000"><path d="M17.57 0L10.95 0 1.23-31.95 5.58-31.95 13.95-3.15 14.55-3.15 22.95-31.95 27.28-31.95 17.57 0ZM35.92 0L31.87 0 31.87-24.4 35.92-24.4 35.92 0ZM33.9-28.4L33.9-28.4Q32.65-28.4 32.03-29.06 31.42-29.73 31.42-30.88L31.42-30.88 31.42-31Q31.42-32.18 32.03-32.83 32.65-33.48 33.9-33.48L33.9-33.48Q35.15-33.48 35.77-32.83 36.4-32.18 36.4-31L36.4-31 36.4-30.88Q36.4-29.7 35.77-29.05 35.15-28.4 33.9-28.4ZM50.25 0.55L50.25 0.55Q47.3 0.55 45.09-0.09 42.9-0.73 41.45-1.48L41.45-1.48 41.07-5.23Q42.9-4.28 45.08-3.58 47.27-2.88 50.05-2.88L50.05-2.88Q52.87-2.88 54.3-3.78 55.72-4.67 55.72-6.45L55.72-6.45 55.72-6.73Q55.72-7.88 55.18-8.63 54.65-9.38 53.25-9.95 51.84-10.53 49.27-11.1L49.27-11.1Q46.2-11.78 44.42-12.69 42.65-13.6 41.88-14.95 41.12-16.3 41.12-18.25L41.12-18.25 41.12-18.48Q41.12-21.68 43.34-23.33 45.57-24.98 50.05-24.98L50.05-24.98Q52.92-24.98 55.03-24.33 57.14-23.68 58.5-22.88L58.5-22.88 58.87-19.45Q57.25-20.4 55.15-21.03 53.05-21.65 50.42-21.65L50.42-21.65Q48.52-21.65 47.34-21.26 46.17-20.88 45.65-20.16 45.12-19.45 45.12-18.45L45.12-18.45 45.12-18.25Q45.12-17.15 45.65-16.39 46.17-15.63 47.53-15.06 48.9-14.5 51.32-13.98L51.32-13.98Q54.45-13.35 56.28-12.48 58.12-11.6 58.92-10.26 59.72-8.93 59.72-6.83L59.72-6.83 59.72-6.4Q59.72-2.95 57.32-1.2 54.92 0.55 50.25 0.55ZM83.17 0L79.14 0 79.32-5.93 79.17-6.55 79.17-14.33 79.19-15.75Q79.19-18.73 77.68-20.15 76.17-21.58 72.89-21.58L72.89-21.58Q70.27-21.58 68.08-20.83 65.89-20.08 64.19-19.07L64.19-19.07 64.57-22.53Q65.52-23.1 66.83-23.66 68.14-24.23 69.83-24.6 71.52-24.98 73.54-24.98L73.54-24.98Q76.17-24.98 78.01-24.34 79.84-23.7 80.98-22.5 82.12-21.3 82.64-19.6 83.17-17.9 83.17-15.8L83.17-15.8 83.17 0ZM70.74 0.53L70.74 0.53Q67.12 0.53 65.18-1.24 63.24-3 63.24-6.28L63.24-6.28 63.24-7Q63.24-10.38 65.33-12.04 67.42-13.7 71.97-14.35L71.97-14.35 79.69-15.45 79.92-12.5 72.47-11.43Q69.67-11.03 68.47-10.06 67.27-9.1 67.27-7.23L67.27-7.23 67.27-6.83Q67.27-4.9 68.46-3.88 69.64-2.85 72.02-2.85L72.02-2.85Q74.12-2.85 75.62-3.58 77.12-4.3 78.04-5.53 78.97-6.75 79.29-8.25L79.29-8.25 79.92-5.5 79.14-5.5Q78.79-3.9 77.83-2.53 76.87-1.15 75.14-0.31 73.42 0.53 70.74 0.53ZM98.87-7.3L98.87-7.3Q93.89-7.3 91.23-9.47 88.57-11.65 88.57-15.7L88.57-15.7 88.57-16.32Q88.57-18.85 89.6-20.73 90.64-22.6 92.92-23.66 95.19-24.73 98.87-24.83L98.87-24.83 111.32-25.23 111.32-22.03 103.97-22.28 103.94-22.1Q105.67-21.75 106.77-20.9 107.87-20.05 108.4-18.78 108.94-17.5 108.94-15.8L108.94-15.8 108.94-15.25Q108.94-11.38 106.39-9.34 103.84-7.3 98.87-7.3ZM98.69 6.15L98.69 6.15 99.27 6.15Q101.52 6.15 103.13 5.81 104.74 5.48 105.62 4.75 106.49 4.03 106.49 2.83L106.49 2.83 106.49 2.73Q106.49 1.33 105.48 0.59 104.47-0.15 102.02-0.38L102.02-0.38 95.12-1 96.27-1.05Q94.87-0.85 93.8-0.4 92.74 0.05 92.14 0.79 91.54 1.53 91.54 2.63L91.54 2.63 91.54 2.68Q91.54 3.95 92.42 4.73 93.29 5.5 94.89 5.83 96.49 6.15 98.69 6.15ZM99.19 9.38L98.47 9.38Q95.17 9.38 92.78 8.81 90.39 8.25 89.08 6.99 87.77 5.73 87.77 3.6L87.77 3.6 87.77 3.5Q87.77 2 88.48 1 89.19 0 90.4-0.58 91.62-1.15 93.12-1.35L93.12-1.35 93.09-1.5Q91.04-1.85 90.07-2.71 89.09-3.58 89.09-4.95L89.09-4.95 89.09-4.98Q89.09-5.93 89.53-6.6 89.97-7.28 90.85-7.68 91.74-8.08 93.12-8.18L93.12-8.18 93.12-8.68 97.77-7.5 95.87-7.55Q94.17-7.53 93.52-7.14 92.87-6.75 92.87-5.98L92.87-5.98 92.87-5.95Q92.87-5.13 93.79-4.7 94.72-4.28 96.94-4.03L96.94-4.03 102.87-3.43Q106.74-3.03 108.52-1.56 110.29-0.1 110.29 2.75L110.29 2.75 110.29 2.88Q110.29 5.15 108.94 6.6 107.59 8.05 105.12 8.71 102.64 9.38 99.19 9.38L99.19 9.38ZM98.82-10.3L98.82-10.3Q100.92-10.3 102.3-10.91 103.69-11.53 104.4-12.76 105.12-14 105.12-15.8L105.12-15.8 105.12-16.4Q105.12-18.15 104.43-19.38 103.74-20.6 102.37-21.24 100.99-21.88 98.92-21.88L98.92-21.88 98.77-21.88Q96.52-21.88 95.1-21.19 93.69-20.5 93.05-19.26 92.42-18.03 92.42-16.38L92.42-16.38 92.42-15.8Q92.42-14 93.13-12.78 93.84-11.55 95.27-10.93 96.69-10.3 98.82-10.3ZM125.24 0.55L125.24 0.55Q119.66 0.55 116.84-2.18 114.01-4.9 114.01-9.98L114.01-9.98 114.01-14.33Q114.01-19.48 116.64-22.26 119.26-25.05 124.31-25.05L124.31-25.05Q127.71-25.05 129.99-23.79 132.26-22.53 133.41-20.2 134.56-17.88 134.56-14.65L134.56-14.65 134.56-13.75Q134.56-12.95 134.5-12.15 134.44-11.35 134.34-10.58L134.34-10.58 130.61-10.58Q130.66-11.78 130.68-12.85 130.69-13.93 130.69-14.83L130.69-14.83Q130.69-17.05 129.98-18.59 129.26-20.13 127.85-20.94 126.44-21.75 124.31-21.75L124.31-21.75Q121.16-21.75 119.59-19.93 118.01-18.1 118.01-14.7L118.01-14.7 118.01-12.38 118.04-11.88 118.04-9.55Q118.04-8.03 118.49-6.8 118.94-5.58 119.9-4.69 120.86-3.8 122.35-3.34 123.84-2.88 125.89-2.88L125.89-2.88Q128.26-2.88 130.31-3.5 132.36-4.13 134.16-5.2L134.16-5.2 133.79-1.7Q132.16-0.68 130.01-0.06 127.86 0.55 125.24 0.55ZM133.49-10.58L116.14-10.58 116.14-13.63 133.49-13.63 133.49-10.58ZM149.34 0.58L149.34 0.58Q147.04 0.58 145.12 0.2 143.21-0.18 141.71-0.73 140.21-1.28 139.21-1.83L139.21-1.83 138.79-5.95Q140.71-4.8 143.32-3.94 145.94-3.08 149.01-3.08L149.01-3.08Q152.71-3.08 154.49-4.39 156.26-5.7 156.26-8.33L156.26-8.33 156.26-8.72Q156.26-10.45 155.56-11.55 154.86-12.65 153.2-13.4 151.54-14.15 148.69-14.8L148.69-14.8Q145.09-15.65 142.92-16.81 140.76-17.98 139.8-19.73 138.84-21.48 138.84-24.08L138.84-24.08 138.84-24.3Q138.84-28.23 141.41-30.36 143.99-32.5 149.21-32.5L149.21-32.5Q152.64-32.5 155.05-31.8 157.46-31.1 158.99-30.25L158.99-30.25 159.36-26.45Q157.59-27.5 155.22-28.24 152.86-28.98 149.81-28.98L149.81-28.98Q147.39-28.98 145.89-28.4 144.39-27.83 143.71-26.75 143.04-25.68 143.04-24.15L143.04-24.15 143.04-24.05Q143.04-22.5 143.7-21.4 144.36-20.3 146.02-19.5 147.69-18.7 150.76-17.95L150.76-17.95Q154.29-17.13 156.41-16.05 158.54-14.98 159.5-13.25 160.46-11.53 160.46-8.75L160.46-8.75 160.46-8.22Q160.46-3.9 157.67-1.66 154.89 0.58 149.34 0.58ZM174.88 0.5L174.88 0.5Q172.06 0.5 170.33-0.35 168.61-1.2 167.83-2.93 167.06-4.65 167.06-7.23L167.06-7.23 167.06-22.63 171.06-22.63 171.06-7.7Q171.06-5.3 172.16-4.16 173.26-3.03 175.86-3.03L175.86-3.03Q177.33-3.03 178.7-3.35 180.06-3.68 181.26-4.28L181.26-4.28 180.88-0.8Q179.71-0.2 178.13 0.15 176.56 0.5 174.88 0.5ZM180.63-20.8L163.06-20.8 163.06-24.05 181.01-24.05 180.63-20.8ZM170.96-23.65L167.08-23.65 167.06-30.5 171.13-31.03 170.96-23.65ZM185.48-24.4L189.51-24.4 189.51-9.22Q189.51-7.3 190.04-5.86 190.58-4.42 191.81-3.64 193.03-2.85 195.11-2.85L195.11-2.85Q197.06-2.85 198.46-3.56 199.86-4.28 200.74-5.53 201.63-6.78 201.96-8.35L201.96-8.35 202.68-5.48 201.81-5.48Q201.43-3.83 200.43-2.46 199.43-1.1 197.74-0.29 196.06 0.53 193.58 0.53L193.58 0.53Q190.71 0.53 188.92-0.56 187.13-1.65 186.31-3.74 185.48-5.83 185.48-8.78L185.48-8.78 185.48-24.4ZM201.78-24.4L205.83-24.4 205.83 0 201.78 0 201.96-5.85 201.78-6.1 201.78-24.4ZM220.48 0.53L220.48 0.53Q216.08 0.53 213.78-2.2 211.48-4.93 211.48-10.15L211.48-10.15 211.48-14.18Q211.48-19.43 213.8-22.19 216.13-24.95 220.65-24.95L220.65-24.95Q222.9-24.95 224.55-24.19 226.2-23.43 227.23-22.05 228.25-20.68 228.6-18.8L228.6-18.8 229.93-18.8 228.73-15.08Q228.65-17.23 227.77-18.69 226.88-20.15 225.37-20.9 223.85-21.65 221.9-21.65L221.9-21.65Q218.8-21.65 217.17-19.85 215.53-18.05 215.53-14.55L215.53-14.55 215.53-9.9Q215.53-6.45 217.17-4.65 218.8-2.85 221.9-2.85L221.9-2.85Q223.75-2.85 225.18-3.56 226.6-4.28 227.54-5.54 228.48-6.8 228.83-8.4L228.83-8.4 229.83-5.5 228.63-5.5Q228.28-3.85 227.29-2.48 226.3-1.1 224.64-0.29 222.98 0.53 220.48 0.53ZM232.68 0L228.63 0 228.8-5.9 228.73-7.2 228.73-17.4 228.75-18.25 228.65-25.18 228.65-33.13 232.68-33.13 232.68 0ZM243.4 0L239.35 0 239.35-24.4 243.4-24.4 243.4 0ZM241.38-28.4L241.38-28.4Q240.13-28.4 239.51-29.06 238.9-29.73 238.9-30.88L238.9-30.88 238.9-31Q238.9-32.18 239.51-32.83 240.13-33.48 241.38-33.48L241.38-33.48Q242.63-33.48 243.25-32.83 243.88-32.18 243.88-31L243.88-31 243.88-30.88Q243.88-29.7 243.25-29.05 242.63-28.4 241.38-28.4ZM259.8 0.63L259.8 0.63Q254.55 0.63 251.84-2.21 249.12-5.05 249.12-10.38L249.12-10.38 249.12-14.1Q249.12-19.4 251.85-22.23 254.57-25.05 259.8-25.05L259.8-25.05Q265.05-25.05 267.76-22.23 270.47-19.4 270.47-14.1L270.47-14.1 270.47-10.38Q270.47-5.05 267.76-2.21 265.05 0.63 259.8 0.63ZM259.8-2.68L259.8-2.68Q263.05-2.68 264.74-4.6 266.42-6.53 266.42-10.15L266.42-10.15 266.42-14.33Q266.42-17.93 264.74-19.84 263.05-21.75 259.8-21.75L259.8-21.75Q256.57-21.75 254.87-19.84 253.17-17.93 253.17-14.33L253.17-14.33 253.17-10.15Q253.17-6.53 254.87-4.6 256.57-2.68 259.8-2.68Z" opacity="1" transform="matrix(1,0,0,1,0,0)" fill="#000000" class="wordmark-text-0" data-fill-palette-color="primary" id="text-0"></path></svg></g></svg></g></svg></g></svg></g><g><svg viewBox="0 0 144.5905827627518 144.5905827627518" height="144.5905827627518" width="144.5905827627518"><g><svg></svg></g><g id="icon-0"><svg viewBox="0 0 144.5905827627518 144.5905827627518" height="144.5905827627518" width="144.5905827627518"><g><rect width="131.47032617872432" height="131.47032617872432" x="6.560128292013744" y="6.560128292013744" fill="#3448c5" data-fill-palette-color="accent"></rect><rect width="131.47032617872432" height="131.47032617872432" x="13.120256584027482" y="5.329070518200751e-15" fill="#3448c5" opacity="0.5" data-fill-palette-color="accent"></rect></g><g transform="matrix(1,0,0,1,18.74600301821112,18.743223691467826)"><svg viewBox="0 0 107.09857672632957 107.10413537981616" height="107.10413537981616" width="107.09857672632957"><g><svg xmlns="http://www.w3.org/2000/svg" xmlns:xlink="http://www.w3.org/1999/xlink" version="1.1" x="0" y="0" viewBox="11.466 11.464 77.06800000000001 77.072" enable-background="new 0 0 100 100" xml:space="preserve" height="107.10413537981616" width="107.09857672632957" class="icon-dxe-0" data-fill-palette-color="quaternary" id="dxe-0"><g fill="#ffffff" data-fill-palette-color="quaternary"><path fill="#ffffff" d="M88.534 49.226C88.116 28.536 71.46 11.885 50.797 11.464 58.735 34.159 65.85 41.281 88.534 49.226" data-fill-palette-color="quaternary"></path><path fill="#ffffff" d="M49.221 11.464C28.546 11.881 11.885 28.534 11.467 49.227 34.166 41.281 41.274 34.159 49.221 11.464" data-fill-palette-color="quaternary"></path><path fill="#ffffff" d="M50.797 88.536C71.461 88.115 88.118 71.469 88.534 50.797 65.85 58.72 58.735 65.841 50.797 88.536" data-fill-palette-color="quaternary"></path><path fill="#ffffff" d="M11.466 50.797C11.882 71.471 28.544 88.126 49.22 88.536 41.273 65.841 34.166 58.727 11.466 50.797" data-fill-palette-color="quaternary"></path><path fill="#ffffff" d="M67.945 50.006C67.945 40.094 59.912 32.054 50.005 32.054 40.088 32.054 32.056 40.094 32.056 50.006 32.056 59.91 40.089 67.946 50.005 67.946 59.911 67.946 67.945 59.903 67.945 50.006M55.7 50A5.196 5.196 0 0 1 50.498 44.806 5.2 5.2 0 0 1 55.7 39.611 5.194 5.194 0 1 1 55.7 50" data-fill-palette-color="quaternary"></path></g></svg></g></svg></g></svg></g></svg></g></svg></g><defs></defs></svg><rect width="395.52" height="103.04802318216767" fill="none" stroke="none" visibility="hidden"></rect></g></svg></g></svg>